<?xml version="1.0" encoding="UTF-8" standalone="no"?>
<svg
   version="1.0"
   width="1280.000000pt"
   height="905.000000pt"
   id="svg183"
   sodipodi:docname="heartbeat.svg"
   xml:space="preserve"
   inkscape:version="1.2.1 (9c6d41e410, 2022-07-14)"
   xmlns:inkscape="http://www.inkscape.org/namespaces/inkscape"
   xmlns:sodipodi="http://sodipodi.sourceforge.net/DTD/sodipodi-0.dtd"
   xmlns="http://www.w3.org/2000/svg"
   xmlns:svg="http://www.w3.org/2000/svg"><defs
     id="defs187" /><sodipodi:namedview
     id="namedview185"
     pagecolor="#ffffff"
     bordercolor="#111111"
     borderopacity="1"
     inkscape:showpageshadow="0"
     inkscape:pageopacity="0"
     inkscape:pagecheckerboard="1"
     inkscape:deskcolor="#d1d1d1"
     inkscape:document-units="pt"
     showgrid="false"
     inkscape:zoom="0.55318409"
     inkscape:cx="347.98542"
     inkscape:cy="705.91329"
     inkscape:window-width="1064"
     inkscape:window-height="810"
     inkscape:window-x="-5"
     inkscape:window-y="5"
     inkscape:window-maximized="0"
     inkscape:current-layer="svg183" /><path
     style="fill:#090909;stroke:none;stroke-width:2.03221"
     d="m 373.79373,770.1196 h -1.91011 c 0,-29.62946 -3.91574,-59.13353 -5.61574,-88.64624 -0.65135,-11.31213 1.82607,-30.72998 -3.72281,-40.61944 -11.57529,-20.62863 -31.31058,22.37993 -34.59406,31.97102 l -40.11238,-29.20785 -38.20227,18.2568 -133.70793,2.30264 v 19.45893 c 45.94224,0 93.67902,4.27664 139.43827,-0.14054 11.07236,-1.06807 19.461,-13.88286 30.06652,-14.16394 16.28754,-0.43242 31.00554,44.63447 49.62723,28.40788 4.71416,-4.10583 8.08933,-11.1824 11.99169,-16.2655 l 17.19102,261.61453 h 19.10114 l 22.92135,-423.7723 h 1.91012 c 0.0287,47.66076 9.83517,97.58654 15.2809,144.86094 1.44023,12.49912 0.18911,43.71773 8.55158,52.69046 13.74709,14.75204 35.88339,-39.56649 39.20126,-50.52836 8.86865,4.55772 11.8045,16.81901 21.02079,20.58972 14.14248,5.78795 36.56148,1.03132 51.56351,1.03132 36.79834,0 74.03218,1.88535 110.78658,-0.0411 10.30315,-0.53837 19.77731,-15.3704 28.6154,-13.97151 16.95417,2.681 17.26552,41.84967 34.45463,45.96416 13.79484,3.30153 20.7763,-20.7562 24.79518,-31.95157 9.51236,20.93781 6.41225,54.50231 7.75506,77.83573 3.33315,57.84492 3.77629,120.39457 13.25619,177.29249 h 21.01124 l 21.01125,-421.6102 h 1.91011 c 0.14326,47.57385 10.37001,97.64925 15.77563,144.86094 1.20337,10.49918 0.74112,40.99565 8.3491,47.80627 15.42226,13.8072 33.67912,-38.9784 36.9989,-49.96837 7.45517,5.76201 12.45776,16.2028 21.0208,19.87838 26.48181,11.37483 70.99127,1.74266 99.31634,1.74266 77.23158,0 154.10798,-2.16211 231.12368,-2.16211 v -19.45893 h -212.0225 c -33.49007,0 -69.95986,4.6896 -103.14617,-0.17946 -16.34293,-2.39777 -20.48405,-30.25215 -36.2826,-31.44131 -11.92675,-0.89727 -19.84226,26.46631 -24.84102,35.94498 l -11.9554,-97.29466 -20.51653,-172.96829 h -19.10113 l -19.10114,393.50285 h -1.91011 c -0.37438,-34.62609 -6.4027,-69.18948 -7.60416,-103.78097 -0.42787,-12.25913 1.35618,-36.74279 -5.44,-46.82468 -13.17215,-19.54325 -33.94845,36.41847 -36.61879,46.82468 h -3.82022 c -4.73899,-11.81806 -17.89586,-42.6929 -30.57137,-44.33394 -13.86933,-1.79454 -22.85068,19.93244 -36.2826,22.37345 -43.05395,7.82033 -93.87825,1.32105 -137.52816,0.32864 -20.16125,-0.4562 -24.00439,-33.9234 -40.10283,-33.04126 -13.79675,0.75457 -20.34271,31.05213 -30.57136,39.53838 -0.042,-70.24026 -14.81102,-144.40365 -23.14293,-214.04825 -1.65416,-13.82903 0.12033,-71.48548 -22.04462,-59.5079 -6.59562,3.56405 -4.15832,16.13074 -4.73135,22.75214 -1.92731,22.25518 -2.86135,44.66755 -3.60057,67.02521 -3.09247,93.55855 -15.24461,187.4133 -15.24461,281.07346 z"
     id="path207" /></svg>
