<svg width="1706.6666666666665" height="1206.6666666666665" xmlns="http://www.w3.org/2000/svg" xmlns:undefined="http://sodipodi.sourceforge.net/DTD/sodipodi-0.dtd" xmlns:undefined="http://www.inkscape.org/namespaces/inkscape" xml:space="preserve" version="1.0">
 <defs id="defs187">
  <linearGradient y2="0" x2="1" y1="0" x1="0" id="svg_1">
   <stop offset="0" stop-color="#090909"/>
   <stop offset="1" stop-color="#f6f6f6"/>
  </linearGradient>
  <linearGradient y2="0" x2="1" y1="0" x1="0" id="svg_2">
   <stop offset="0" stop-color="#none"/>
   <stop offset="1" stop-color="#NaNNaNNaN"/>
  </linearGradient>
 </defs>
 <g>
  <title>Layer 1</title>
  <path stroke="url(#svg_2)" fill-opacity="0" stroke-width="2.03221" fill="url(#svg_1)" id="path207" d="m290.63636,729.87389l-133.70793,2.30264c368.01516,-0.00001 736.03031,-0.00001 1104.04547,-0.00002l-212.0225,0c-33.49007,0 -69.95986,4.6896 -103.14617,-0.17946c-12.0942,-10.48044 -24.1884,-20.96087 -36.2826,-31.44131c-11.92675,-0.89727 -19.84226,26.46631 -24.84102,35.94498l-11.9554,-97.29466l-20.51653,-172.96829l-19.10113,0l-19.10114,393.50285l-1.91011,0c-0.37438,-34.62609 -6.4027,-69.18948 -7.60416,-103.78097c-0.42787,-12.25913 1.35618,-36.74279 -5.44,-46.82468c-13.17215,-19.54325 -33.94845,36.41847 -36.61879,46.82468l1.17978,5c-4.73899,-11.81806 -22.89586,-47.6929 -35.57137,-49.33394c-13.86933,-1.79454 -22.85068,19.93244 -36.2826,22.37345c-43.05395,7.82033 -93.87825,1.32105 -137.52816,0.32864c-20.16125,-0.4562 -24.00439,-33.9234 -40.10283,-33.04126c-13.79675,0.75457 -20.34271,31.05213 -30.57136,39.53838c-0.042,-70.24026 -14.81102,-144.40365 -23.14293,-214.04825c-1.65416,-13.82903 0.12033,-71.48548 -22.04462,-59.5079c-6.59562,3.56405 -4.15832,16.13074 -4.73135,22.75214c-1.92731,22.25518 -2.86135,44.66755 -3.60057,67.02521c-3.09247,93.55855 -15.24461,187.4133 -15.24461,281.07346l0,0.00002l-1.91011,0l-5.61574,-88.64624l-3.72281,-40.61944l-34.59406,31.97102l-40.11238,-29.20785l-38.20227,18.2568z"/>
 </g>
</svg>