<?xml version="1.0" encoding="UTF-8" standalone="no"?>
<svg
   version="1.0"
   width="1280.000000pt"
   height="905.000000pt"
   id="svg183"
   sodipodi:docname="heartbeat.svg"
   xml:space="preserve"
   inkscape:version="1.2.1 (9c6d41e410, 2022-07-14)"
   xmlns:inkscape="http://www.inkscape.org/namespaces/inkscape"
   xmlns:sodipodi="http://sodipodi.sourceforge.net/DTD/sodipodi-0.dtd"
   xmlns="http://www.w3.org/2000/svg"
   xmlns:svg="http://www.w3.org/2000/svg"><defs
     id="defs187" /><sodipodi:namedview
     id="namedview185"
     pagecolor="#ffffff"
     bordercolor="#111111"
     borderopacity="1"
     inkscape:showpageshadow="0"
     inkscape:pageopacity="0"
     inkscape:pagecheckerboard="1"
     inkscape:deskcolor="#d1d1d1"
     inkscape:document-units="pt"
     showgrid="false"
     inkscape:zoom="0.55318409"
     inkscape:cx="347.98542"
     inkscape:cy="705.91329"
     inkscape:window-width="1064"
     inkscape:window-height="810"
     inkscape:window-x="-5"
     inkscape:window-y="5"
     inkscape:window-maximized="0"
     inkscape:current-layer="svg183" /><path
     style="fill:#090909;stroke:none;stroke-width:2.03221"
     d="m 373.79373,770.1196 h -1.91011 c 0,-29.62946 -3.91574,-59.13353 -5.61574,-88.64624 -0.65135,-11.31213 1.82607,-30.72998 -3.72281,-40.61944 -11.57529,-20.62863 -31.31058,22.37993 -34.59406,31.97102 l -40.11238,-29.20785 -38.20227,18.2568 -133.70793,2.30264 v 19.45893 c 45.94224,0 93.67902,4.27664 139.43827,-0.14054 11.07236,-1.06807 19.461,-13.88286 30.06652,-14.16394 16.28754,-0.43242 31.00554,44.63447 49.62723,28.40788 4.71416,-4.10583 8.08933,-11.1824 11.99169,-16.2655 l 17.19102,261.61453 h 19.10114 l 22.92135,-423.7723 h 1.91012 c 0.0287,47.66076 9.83517,97.58654 15.2809,144.86094 1.44023,12.49912 0.18911,43.71773 8.55158,52.69046 13.74709,14.75204 35.88339,-39.56649 39.20126,-50.52836 8.86865,4.55772 11.8045,16.81901 21.02079,20.58972 14.14248,5.78795 36.56148,1.03132 51.56351,1.03132 36.79834,0 74.03218,1.88535 110.78658,-0.0411 10.30315,-0.53837 19.77731,-15.3704 28.6154,-13.97151 16.95417,2.681 17.26552,41.84967 34.45463,45.96416 13.79484,3.30153 20.7763,-20.7562 24.79518,-31.95157 9.51236,20.93781 6.41225,54.50231 7.75506,77.83573 3.33315,57.84492 3.77629,120.39457 13.25619,177.29249 h 21.01124 l 21.01125,-421.6102 h 1.91011 c 0.14326,47.57385 10.37001,97.64925 15.77563,144.86094 1.20337,10.49918 0.74112,40.99565 8.3491,47.80627 15.42226,13.8072 33.67912,-38.9784 36.9989,-49.96837 7.45517,5.76201 12.45776,16.2028 21.0208,19.87838 26.48181,11.37483 70.99127,1.74266 99.31634,1.74266 77.23158,0 154.10798,-2.16211 231.12368,-2.16211 v -19.45893 h -212.0225 c -33.49007,0 -69.95986,4.6896 -103.14617,-0.17946 -16.34293,-2.39777 -20.48405,-30.25215 -36.2826,-31.44131 -11.92675,-0.89727 -19.84226,26.46631 -24.84102,35.94498 l -11.9554,-97.29466 -20.51653,-172.96829 h -19.10113 l -19.10114,393.50285 h -1.91011 c -0.37438,-34.62609 -6.4027,-69.18948 -7.60416,-103.78097 -0.42787,-12.25913 1.35618,-36.74279 -5.44,-46.82468 -13.17215,-19.54325 -33.94845,36.41847 -36.61879,46.82468 h -3.82022 c -4.73899,-11.81806 -17.89586,-42.6929 -30.57137,-44.33394 -13.86933,-1.79454 -22.85068,19.93244 -36.2826,22.37345 -43.05395,7.82033 -93.87825,1.32105 -137.52816,0.32864 -20.16125,-0.4562 -24.00439,-33.9234 -40.10283,-33.04126 -13.79675,0.75457 -20.34271,31.05213 -30.57136,39.53838 -0.042,-70.24026 -14.81102,-144.40365 -23.14293,-214.04825 -1.65416,-13.82903 0.12033,-71.48548 -22.04462,-59.5079 -6.59562,3.56405 -4.15832,16.13074 -4.73135,22.75214 -1.92731,22.25518 -2.86135,44.66755 -3.60057,67.02521 -3.09247,93.55855 -15.24461,187.4133 -15.24461,281.07346 z"
     id="path207" /><path
     style="fill:#e07a5f"
     d="m 128.34787,674.27825 c 2.41029,1.80772 4.40984,4.36526 7.23087,5.42315 4.01549,1.50581 32.83383,0 34.34661,0 21.12984,0 41.55767,1.21175 61.46236,-5.42315 5.76532,-1.92177 15.73402,0 21.6926,0 0.60257,0 1.38163,-0.42608 1.80772,0 0.42608,0.42608 -0.60258,1.80772 0,1.80772 2.48446,0 4.87389,-1.02206 7.23086,-1.80772 6.12632,-2.0421 10.9101,-4.55119 16.26945,-7.23087 1.07791,-0.53895 2.76327,0.85217 3.61543,0 0.42609,-0.42608 -0.42608,-1.38163 0,-1.80771 0.81741,-0.81741 12.07329,-0.29036 12.65402,0 4.98509,2.49254 5.6708,10.06627 10.8463,12.65401 2.71741,1.35871 19.345,1.38511 23.50031,0 6.8414,-2.28046 15.15502,-4.53981 19.88488,-10.8463 0.74636,-0.99514 5.22725,-10.84629 5.42315,-10.84629 2.28164,0 -1.63464,15.57713 -1.80771,16.26944 -3.84493,15.37972 -1.80772,32.9018 -1.80772,48.80835 0,6.84023 -1.61546,15.23078 0,21.6926 0.20668,0.82672 1.20514,1.20514 1.80772,1.80771 0.60257,2.41029 1.45636,4.77137 1.80771,7.23087 0.34087,2.38606 -1.07791,5.07504 0,7.23087 2.15078,4.30156 3.90416,9.14525 5.42315,14.46173 0.33108,1.15877 -0.44758,2.49648 0,3.61543 4.12541,10.31352 2.79106,1.14231 5.42315,9.03858 0.3811,1.1433 -0.3811,2.47214 0,3.61544 4.01895,12.05685 9.52795,23.65006 12.65402,36.15433 4.3404,17.36162 10.8463,34.27124 10.8463,52.42377 0,6.02573 0,12.05145 0,18.07717 0,3.37363 -0.38591,2.57952 -1.80772,5.42315 -0.26948,0.53896 -0.22379,2.36719 0,1.80772 10.89212,-27.2303 10.8463,-57.83645 10.8463,-86.7704 0,-13.34569 0.59677,-26.54506 -1.80772,-39.76976 -0.74441,-4.09427 -3.09967,-8.52788 -3.61543,-12.65401 -0.3737,-2.9896 0.33271,-6.04415 0,-9.03859 -0.70813,-6.37311 -4.18703,-11.89654 -5.42315,-18.07716 -0.70905,-3.54523 0.5113,-7.2672 0,-10.8463 -0.26948,-1.88635 -1.49446,-3.54358 -1.80772,-5.42315 -1.12917,-6.77503 0,-14.83715 0,-21.6926 0,-39.16719 0,-78.33438 0,-117.50157 0,-22.67623 -1.8516,-46.73733 1.80772,-68.69323 1.45669,-8.74015 5.09748,-16.77447 7.23086,-25.30803 0.2923,-1.16916 -0.3811,-2.47213 0,-3.61543 0.26948,-0.80844 1.20515,-1.20514 1.80772,-1.80772 1.20515,-3.01286 2.72398,-5.91848 3.61543,-9.03858 0.33108,-1.15877 -1.20514,-3.61543 0,-3.61543 0.76686,0 10.19782,26.15277 12.65402,32.53889 3.01286,7.83344 5.28518,15.99352 9.03858,23.50032 2.19981,4.39962 5.68015,8.00185 7.23087,12.65401 1.62073,4.8622 6.34342,21.79111 7.23086,27.11575 0.19813,1.18875 -0.3811,2.47213 0,3.61543 0.26948,0.80844 1.6406,0.9721 1.80772,1.80772 0.59087,2.95435 -0.95275,6.18033 0,9.03858 2.1655,6.49649 0.66465,11.21877 1.80772,18.07717 0.22151,1.32906 1.48092,2.30827 1.80771,3.61543 2.16392,8.65569 0,28.48499 0,37.96205 0,3.358 -1.21814,45.19291 1.80772,45.19291 1.00094,0 21.90636,-34.13285 27.11575,-28.92346 0.42608,0.42608 -0.42609,1.38163 0,1.80771 1.34739,1.34739 3.83767,0.75074 5.42315,1.80772 4.40028,2.93352 7.05199,9.72589 12.65401,10.8463 15.06431,3.01286 -2.00857,-2.00858 9.03858,0 5.46584,0.99379 10.8219,2.52592 16.26945,3.61543 3.47638,0.69528 7.36992,-0.69527 10.8463,0 4.62458,0.92492 9.60844,3.00877 14.46173,3.61543 8.23523,1.02941 17.12051,-1.36458 25.30803,0 18.78314,3.13053 38.59315,1.80772 57.84693,1.80772 5.7881,0 24.24708,2.3382 28.92347,0 4.87762,-2.43881 11.02809,-4.61019 16.26944,-7.23087 1.07792,-0.53895 2.47214,0.3811 3.61544,0 3.73225,-1.24408 4.18454,-3.89998 7.23086,-5.42315 1.63011,-0.81505 9.31151,-5.15022 10.8463,-3.61543 1.68195,1.68195 2.66682,8.63287 3.61544,10.8463 1.59229,3.71535 3.18095,7.48301 5.42315,10.8463 0.94539,1.41809 2.85323,2.09103 3.61543,3.61543 0.26948,0.53896 -0.42608,1.38164 0,1.80772 0.42608,0.42608 1.44617,-0.48206 1.80771,0 2.91486,3.88647 4.40716,8.70082 7.23087,12.65401 4.29224,6.00915 7.09518,12.78971 9.03858,10.8463 3.91755,-3.91754 6.15934,-9.77476 10.8463,-14.46173 0.42608,-0.42608 1.47347,0.50137 1.80772,0 5.49619,-8.24429 0.70157,-2.80629 1.80771,-7.23086 1.42118,-5.68472 6.89118,-14.12205 10.8463,-18.07717 2.06831,-2.0683 2.52103,-2.13992 3.61544,-5.42315 0.19055,-0.57165 -0.60258,-1.80772 0,-1.80772 1.13655,0 6.88585,30.46882 7.23086,32.5389 1.80772,10.8463 -2.41029,-6.62829 1.80772,1.80772 1.59305,3.1861 0.6556,9.19765 1.80772,12.65401 0.26947,0.80844 1.60103,0.981 1.80771,1.80772 1.13426,4.53701 -1.13425,9.92472 0,14.46173 0.46215,1.84861 1.43402,3.55465 1.80772,5.42315 0.4727,2.36348 -0.7622,4.94427 0,7.23087 0.26948,0.80843 1.53824,0.99928 1.80772,1.80771 1.08275,3.24828 -0.83254,7.51618 0,10.8463 1.35268,5.41076 2.48431,10.61387 3.61543,16.26945 0.69527,3.47638 -0.69528,7.36992 0,10.8463 2.39903,11.99516 5.4974,24.02009 7.23086,36.15433 -0.17117,4.57729 2.89425,8.32691 3.61544,12.65402 2.21065,13.26389 4.73028,26.84484 9.03858,39.76976 1.08463,3.25389 -1.08463,7.59241 0,10.8463 0.42608,1.27825 1.48093,2.30827 1.80772,3.61543 0.98074,3.92297 -1.76666,8.99752 0,7.23087 8.48462,-8.48463 7.23086,-25.89776 7.23086,-36.15433 0,-9.02406 2.20109,-20.1191 0,-28.92347 -4.49924,-17.99696 -6.92699,-38.84259 -9.03858,-57.84693 -2.16931,-19.52379 0,-52.0433 0,-68.69322 0,-30.12861 0,-60.25722 0,-90.38583 0,-1.79076 -0.93005,-13.53168 0,-14.46173 0.42608,-0.42608 1.61717,0.57165 1.80772,0 2.16926,-6.50778 -2.16926,-15.18482 0,-21.6926 0.26947,-0.80843 1.64059,-0.9721 1.80771,-1.80771 1.43855,-7.19272 0,-16.14247 0,-23.50032 0,-5.75819 -1.72961,-59.81085 0,-63.27007 0.3811,-0.7622 1.42662,-1.04552 1.80772,-1.80772 0.54572,-1.09145 -0.83564,-4.58751 0,-5.42315 1.73188,-1.73188 3.31638,4.526 3.61543,5.42315 3.49428,10.48283 5.47123,21.83684 9.03858,32.5389 1.94116,5.82347 0.73095,9.0779 1.80772,14.46173 1.20515,4.82058 2.41029,9.64115 3.61543,14.46173 0.60258,1.20514 1.48093,2.30827 1.80772,3.61543 1.63395,6.53582 2.15398,13.30835 3.61543,19.88488 0.82673,3.72025 2.98891,7.08716 3.61544,10.8463 0.39625,2.3775 -0.29896,4.83919 0,7.23087 0.61632,4.93057 2.53752,9.61112 3.61543,14.46173 3.65539,3.8371 0.92922,10.06925 1.80772,14.46173 0.84769,4.23846 1.91529,9.25374 3.61543,12.65402 0.74035,1.4807 -0.27617,5.85003 0,7.23086 0.7474,3.737 2.86803,7.10931 3.61543,10.8463 0.4727,2.36349 -0.47269,4.86739 0,7.23087 1.38472,6.92361 2.57113,15.98855 5.42315,21.6926 0.72309,1.44617 -0.72309,3.97697 0,5.42315 0.26948,0.53895 1.38164,-0.42609 1.80772,0 1.90483,1.90483 0.64929,8.52945 1.80771,10.8463 0.3811,0.7622 1.39966,-1.05961 1.80772,-1.80772 3.36496,-6.16909 7.30553,-12.00727 10.8463,-18.07717 0.96013,-1.64593 0.61736,-3.9352 1.80772,-5.42315 2.66171,-3.32714 7.13308,-5.22758 9.03858,-9.03858 0.26948,-0.53895 -0.42608,-1.38163 0,-1.80771 0.42608,-0.42609 1.38163,0.42608 1.80772,0 0.42608,-0.42609 -0.42609,-1.38164 0,-1.80772 0.42608,-0.42608 1.38163,0.42608 1.80771,0 1.20515,-1.20514 2.41029,-4.82058 3.61543,-3.61543 0.42609,0.42608 -0.42608,1.38163 0,1.80771 1.71186,1.71185 13.61277,2.55276 16.26945,3.61544 2.64703,1.05881 9.18667,4.74141 10.8463,7.23086 1.10089,1.65133 1.54304,4.38695 3.61544,5.42315 1.54601,0.77301 3.87713,1.03471 5.42314,1.80772 0.7622,0.3811 0.981,1.60103 1.80772,1.80771 6.58755,1.64689 14.84772,0 21.6926,0 3.45318,0 11.43782,-1.51195 14.46173,0 4.82058,2.41029 -5.42315,1.80772 1.80772,1.80772"
     id="path330" /></svg>
